<svg viewBox="0 0 501 81" xmlns="http://www.w3.org/2000/svg" fill-rule="evenodd" clip-rule="evenodd" stroke-linejoin="round" stroke-miterlimit="1.414"><g fill-rule="nonzero"><path d="M1.2 45.186H6.47l3.27 8.505c.632.824 1.33 1.477 2.09 1.96.763.482 1.572.846 2.427 1.093s1.74.4 2.653.46c.915.058 1.83.087 2.743.087.914 0 1.863-.123 2.847-.37a7.556 7.556 0 0 0 2.69-1.27c.808-.6 1.476-1.4 2.004-2.4.527-1 .79-2.265.79-3.794 0-1.2-.363-2.294-1.09-3.282-.726-.988-1.687-1.93-2.882-2.823s-2.56-1.752-4.096-2.575a434.47 434.47 0 0 1-4.73-2.576 79.472 79.472 0 0 1-5.185-3.036 26.91 26.91 0 0 1-4.552-3.617 16.874 16.874 0 0 1-3.235-4.464c-.82-1.647-1.23-3.517-1.23-5.61 0-2.425.54-4.57 1.617-6.442a14.99 14.99 0 0 1 4.254-4.71c1.757-1.27 3.766-2.235 6.028-2.893 2.262-.66 4.588-.99 6.98-.99 1.92 0 3.82.09 5.694.266 1.875.177 3.592.394 5.15.653 1.56.26 2.883.535 3.973.83 1.09.293 1.822.558 2.197.793v11.68h-5.765l-3.305-7.41c-.117-.142-.393-.307-.826-.495-.434-.188-.967-.37-1.6-.547a18.478 18.478 0 0 0-2.074-.44 14.23 14.23 0 0 0-2.215-.177c-.937 0-1.893.095-2.865.283-.973.188-1.852.5-2.637.935a5.567 5.567 0 0 0-1.933 1.765c-.504.74-.768 1.676-.792 2.805 0 1.318.276 2.517.827 3.6.55 1.082 1.295 2.082 2.232 3a20.56 20.56 0 0 0 3.27 2.575 76.15 76.15 0 0 0 3.936 2.365c1.313.73 2.654 1.458 4.026 2.188 1.37.73 2.7 1.5 3.99 2.31 1.29.813 2.502 1.67 3.638 2.577a17.514 17.514 0 0 1 2.97 3 13.947 13.947 0 0 1 2.005 3.582c.492 1.294.738 2.73.738 4.305 0 2.258-.48 4.352-1.44 6.28-.962 1.93-2.34 3.6-4.132 5.013-1.792 1.41-3.983 2.523-6.573 3.334-2.59.812-5.514 1.218-8.772 1.218-1.64 0-3.35-.083-5.132-.247a68.483 68.483 0 0 1-5.168-.67 44.25 44.25 0 0 1-4.623-1.024c-1.418-.4-2.573-.835-3.463-1.306V45.186zM46.85 28.565h-5.343v-3.988a19.995 19.995 0 0 0 3.586-.917c1.102-.4 2.05-.953 2.848-1.66.75-.68 1.5-1.746 2.25-3.193s1.513-3.44 2.286-5.98h5.906v9.42h12.024v6.318h-11.46v12.88c0 3.153.07 5.653.21 7.5.14 1.846.375 3.252.703 4.216.327.966.767 1.59 1.317 1.872.55.282 1.248.423 2.092.423.468 0 .995-.03 1.58-.088.587-.06 1.16-.14 1.724-.247.562-.106 1.09-.235 1.582-.388a6.187 6.187 0 0 0 1.23-.512l1.828 3.988c-.562.588-1.318 1.147-2.267 1.676-.95.53-2.05.994-3.305 1.394-1.254.4-2.613.718-4.078.953a28.707 28.707 0 0 1-4.553.354c-2.038 0-3.714-.26-5.026-.777-1.313-.517-2.35-1.305-3.11-2.364-.763-1.06-1.29-2.406-1.583-4.04-.292-1.636-.44-3.583-.44-5.84V28.564zM73.484 41.94c.047-3.624.674-6.74 1.88-9.352 1.208-2.612 2.802-4.764 4.782-6.458s4.26-2.947 6.838-3.758A28.167 28.167 0 0 1 95 21.082c3.14-.022 5.96.378 8.455 1.2 2.496.825 4.617 2.066 6.363 3.724 1.746 1.66 3.088 3.735 4.025 6.23.938 2.493 1.407 5.375 1.407 8.645 0 3.718-.586 6.935-1.758 9.652-1.172 2.718-2.736 4.97-4.693 6.758a19 19 0 0 1-6.77 3.988 24.697 24.697 0 0 1-8.015 1.306c-3.75 0-6.93-.54-9.545-1.624-2.613-1.082-4.74-2.558-6.38-4.428-1.64-1.87-2.83-4.065-3.57-6.582-.737-2.517-1.083-5.187-1.036-8.01zm20.918 15.49c1.64 0 2.96-.48 3.955-1.445.996-.965 1.764-2.212 2.303-3.74.54-1.53.902-3.242 1.09-5.136.187-1.895.28-3.77.28-5.63 0-1.105-.034-2.252-.105-3.44a30.27 30.27 0 0 0-.404-3.476c-.198-1.13-.468-2.2-.807-3.21-.34-1.013-.78-1.895-1.32-2.648a6.243 6.243 0 0 0-1.968-1.8c-.773-.447-1.687-.67-2.742-.67-1.078 0-2.027.206-2.847.617-.82.412-1.53.97-2.127 1.677A9.187 9.187 0 0 0 88.23 31a16.86 16.86 0 0 0-.914 3.052 28.335 28.335 0 0 0-.475 3.406 44.31 44.31 0 0 0-.14 3.493c0 1.013.047 2.12.14 3.32.094 1.198.247 2.41.457 3.633a24.88 24.88 0 0 0 .88 3.547c.374 1.14.85 2.158 1.423 3.052.574.894 1.254 1.606 2.04 2.135.784.53 1.704.794 2.76.794zM119.03 56.937l4.325-.882v-23.22l-4.78-3.388V25l13.042-3.88 2.53.634v6.917a7.72 7.72 0 0 1 1.69-3.175 12.8 12.8 0 0 1 2.74-2.382 13.566 13.566 0 0 1 3.06-1.483c1.03-.34 1.91-.51 2.636-.51.82 0 1.582.034 2.285.105.704.07 1.207.176 1.512.317v11.152c-.28-.283-.68-.53-1.195-.74a11.54 11.54 0 0 0-1.635-.53 14.626 14.626 0 0 0-1.723-.318c-.574-.07-1.06-.106-1.46-.106-.983 0-1.85.06-2.6.176-.75.118-1.377.253-1.88.406a8.64 8.64 0 0 0-1.196.44c-.292.142-.486.248-.58.32v23.396l8.192 1.2v4.8h-24.96v-4.8zM155.795 70.947c.61.118 1.336.253 2.18.406.843.153 1.85.206 3.023.16.562-.025 1.23-.136 2.004-.336.773-.2 1.57-.636 2.39-1.306.82-.67 1.612-1.646 2.373-2.928.762-1.282 1.4-3.017 1.916-5.205h-1.967L153.86 29.482l-3.057-.917v-6.317h20.566v6.317l-4.01.882 6.927 18.845.562 3.634 1.02-3.634 5.73-18.916-4.817-.81v-6.318h17.86v6.317l-3.516.74c-1.735 4.424-3.258 8.282-4.57 11.576a5413.03 5413.03 0 0 1-3.41 8.54c-.962 2.4-1.77 4.406-2.427 6.018-.656 1.61-1.2 2.952-1.634 4.023-.434 1.07-.785 1.936-1.055 2.594-.268.66-.485 1.212-.65 1.66-1.03 2.75-2.074 5.192-3.128 7.32-1.055 2.13-2.21 3.924-3.463 5.383-1.255 1.46-2.644 2.564-4.167 3.317-1.524.753-3.27 1.13-5.238 1.13a72 72 0 0 1-1.565-.018c-.55-.012-1.096-.04-1.635-.088-.54-.047-1.025-.1-1.46-.16-.432-.058-.766-.146-1-.264l.07-9.387zM197.49 50.127h5.8l2.216 3.846c.28.306.62.67 1.02 1.094a9.544 9.544 0 0 0 3.252 2.24c.692.295 1.47.466 2.338.513 2.11.117 3.71-.236 4.8-1.06 1.09-.822 1.622-1.94 1.598-3.352-.023-.635-.287-1.24-.79-1.817-.504-.575-1.178-1.14-2.022-1.693a26.156 26.156 0 0 0-2.9-1.623c-1.09-.53-2.232-1.065-3.427-1.606a60.538 60.538 0 0 1-4.78-2.488c-1.525-.882-2.86-1.888-4.01-3.017a13.452 13.452 0 0 1-2.74-3.83c-.68-1.422-1.01-3.05-.986-4.886.024-1.412.3-2.665.826-3.76a9.663 9.663 0 0 1 2.11-2.875c.88-.823 1.886-1.53 3.023-2.117a19.964 19.964 0 0 1 3.57-1.43c1.24-.364 2.49-.64 3.743-.83a27.97 27.97 0 0 1 3.567-.316 42.22 42.22 0 0 1 4.043.122c1.36.106 2.654.26 3.885.46 1.23.2 2.367.423 3.41.67 1.043.247 1.928.51 2.654.794V32.8H221.5l-1.97-4.376c-.608-.73-1.364-1.377-2.267-1.94a5.424 5.424 0 0 0-2.935-.848c-.656 0-1.295.06-1.916.176a5.38 5.38 0 0 0-1.652.583 3.5 3.5 0 0 0-1.16 1.023c-.294.412-.44.9-.44 1.464a4.9 4.9 0 0 0 .475 2.153 6.97 6.97 0 0 0 1.318 1.853c.562.576 1.236 1.11 2.02 1.605a21.53 21.53 0 0 0 2.585 1.377 326.96 326.96 0 0 0 3.428 1.552c1.16.518 2.29 1.07 3.393 1.66a30.03 30.03 0 0 1 3.112 1.905 13.065 13.065 0 0 1 2.55 2.33c.725.87 1.3 1.84 1.72 2.91.423 1.07.634 2.288.634 3.653 0 2.33-.504 4.3-1.51 5.91-1.01 1.612-2.37 2.924-4.08 3.935-1.71 1.012-3.703 1.74-5.976 2.188-2.274.447-4.676.67-7.207.67-1.125 0-2.315-.058-3.57-.176a34.637 34.637 0 0 1-3.76-.564 30.11 30.11 0 0 1-3.64-.99 16.34 16.34 0 0 1-3.163-1.445v-9.28zM235.037 42.998c0-3.01.492-5.846 1.476-8.505.985-2.658 2.403-4.975 4.254-6.952 1.852-1.975 4.114-3.54 6.786-4.692 2.67-1.153 5.695-1.73 9.07-1.73 2.836 0 5.273.365 7.312 1.095 2.04.73 3.715 1.747 5.028 3.052 1.312 1.306 2.297 2.865 2.953 4.676.656 1.813 1.02 3.79 1.09 5.93.047 1.482.01 2.8-.106 3.952a79.922 79.922 0 0 1-.387 3.21H248.01c.328 4.166 1.4 7.306 3.216 9.424 1.817 2.117 4.46 3.176 7.928 3.176 1.71 0 3.533-.183 5.467-.547a25.87 25.87 0 0 0 5.75-1.818l1.862 4.41c-.89.754-1.974 1.448-3.252 2.084a26.05 26.05 0 0 1-4.166 1.624c-1.5.447-3.088.794-4.763 1.04-1.675.248-3.37.348-5.08.3-3.187-.07-6.017-.552-8.49-1.446-2.472-.894-4.558-2.182-6.258-3.864-1.7-1.682-2.988-3.73-3.867-6.14-.88-2.412-1.318-5.17-1.318-8.276zm25.875-5.646c.07-.87.14-1.806.21-2.806.07-1 .065-1.976-.017-2.93a9.32 9.32 0 0 0-.615-2.663 4.308 4.308 0 0 0-1.547-1.976 4.502 4.502 0 0 0-1.476-.688c-.563-.154-1.22-.23-1.97-.23-1.36 0-2.495.335-3.41 1.005-.913.67-1.658 1.54-2.232 2.61-.574 1.072-.996 2.278-1.265 3.62a31.32 31.32 0 0 0-.545 4.057h12.867zM282.392 28.565h-5.343v-3.988a20.017 20.017 0 0 0 3.585-.917c1.1-.4 2.05-.953 2.847-1.66.75-.68 1.5-1.746 2.25-3.193s1.512-3.44 2.285-5.98h5.907v9.42h12.023v6.318h-11.46v12.88c0 3.153.07 5.653.21 7.5.14 1.846.375 3.252.703 4.216.328.966.768 1.59 1.32 1.872.55.282 1.247.423 2.09.423.47 0 .996-.03 1.582-.088.586-.06 1.16-.14 1.723-.247a14.14 14.14 0 0 0 1.582-.388 6.223 6.223 0 0 0 1.23-.512l1.83 3.988c-.564.588-1.32 1.147-2.27 1.676-.948.53-2.05.994-3.304 1.394-1.254.4-2.613.718-4.078.953a28.703 28.703 0 0 1-4.552.354c-2.04 0-3.715-.26-5.028-.777-1.312-.517-2.35-1.305-3.11-2.364-.763-1.06-1.29-2.406-1.583-4.04-.293-1.636-.44-3.583-.44-5.84V28.564zM314.877 28.565h-5.344v-3.988a20.017 20.017 0 0 0 3.586-.917c1.1-.4 2.05-.953 2.847-1.66.75-.68 1.5-1.746 2.25-3.193s1.51-3.44 2.285-5.98h5.906v9.42h12.023v6.318h-11.46v12.88c0 3.153.07 5.653.21 7.5.142 1.846.376 3.252.705 4.216.328.966.767 1.59 1.318 1.872.55.282 1.248.423 2.092.423.468 0 .996-.03 1.582-.088.586-.06 1.16-.14 1.722-.247a14.14 14.14 0 0 0 1.58-.388 6.173 6.173 0 0 0 1.232-.512l1.828 3.988c-.562.588-1.318 1.147-2.268 1.676-.95.53-2.05.994-3.304 1.394-1.254.4-2.614.718-4.078.953a28.716 28.716 0 0 1-4.553.354c-2.04 0-3.715-.26-5.027-.777-1.313-.517-2.35-1.305-3.112-2.364-.76-1.06-1.29-2.406-1.582-4.04-.293-1.636-.44-3.583-.44-5.84V28.564zM353.62 14.978c-.915 0-1.812-.152-2.69-.458a7.248 7.248 0 0 1-2.32-1.306 6.466 6.466 0 0 1-1.618-2.082c-.41-.823-.615-1.753-.615-2.788 0-1.13.258-2.176.773-3.14a8.682 8.682 0 0 1 2.004-2.506 9.53 9.53 0 0 1 2.76-1.66c1.02-.4 2.045-.6 3.076-.6 1.266 0 2.35.178 3.252.53.902.354 1.646.836 2.232 1.447a5.815 5.815 0 0 1 1.3 2.118c.282.8.423 1.658.423 2.576 0 1.2-.24 2.28-.72 3.246a7.867 7.867 0 0 1-1.934 2.487 8.593 8.593 0 0 1-2.76 1.588 9.416 9.416 0 0 1-3.164.548zm-9.845 41.96l4.746-.99V34l-4.5-5.08v-3.282l13.923-4.517 2.988.88v34.02l5.064.917v4.8h-22.22v-4.8zM370.705 56.937l4.394-.882v-23.22l-4.782-3.388V25l13.043-3.88 2.638.67v5.222a18.838 18.838 0 0 1 3.094-2.435 21.646 21.646 0 0 1 3.638-1.853 24.12 24.12 0 0 1 3.955-1.182 19.866 19.866 0 0 1 4.043-.423c2.25 0 4.114.358 5.59 1.075a8.587 8.587 0 0 1 3.533 3.123c.88 1.365 1.5 3.03 1.865 4.994.363 1.964.545 4.205.545 6.722V56.02l4.957.917v4.8h-22.43v-4.8l5.027-.988V38.62c0-1.882-.088-3.43-.263-4.64-.175-1.212-.51-2.165-1-2.86-.494-.693-1.19-1.175-2.093-1.446-.903-.27-2.092-.405-3.57-.405-.21 0-.555.042-1.036.124-.48.082-.99.194-1.528.335-.54.14-1.066.31-1.582.51s-.914.42-1.195.654v25.09l4.324.953v4.8h-21.165v-4.8zM427.2 60.502c-.913-.353-1.628-.765-2.144-1.236a4.963 4.963 0 0 1-1.177-1.57 5.75 5.75 0 0 1-.51-1.835 18.86 18.86 0 0 1-.107-2.028c0-.565.135-1.194.405-1.888s.627-1.4 1.072-2.117c.445-.718.955-1.412 1.53-2.082a15.915 15.915 0 0 1 1.775-1.783c-2.157-1.035-3.832-2.446-5.028-4.234-1.195-1.788-1.793-3.976-1.793-6.564 0-2.47.55-4.588 1.653-6.352a13.63 13.63 0 0 1 4.324-4.34c1.782-1.13 3.798-1.96 6.048-2.49 2.25-.528 4.535-.816 6.855-.863 2.672-.048 5.098.193 7.278.722 2.18.53 4.044 1.394 5.59 2.594a5.23 5.23 0 0 1 .932-1.306c.387-.4.89-.747 1.512-1.04.62-.295 1.377-.524 2.267-.69.892-.164 1.935-.246 3.13-.246h3.094v8.47h-7.277c.422 1.317.633 2.776.633 4.375 0 2.4-.452 4.48-1.354 6.246a12.228 12.228 0 0 1-3.762 4.393c-1.605 1.164-3.515 2.028-5.73 2.593-2.215.564-4.635.847-7.26.847-2.273 0-4.336-.177-6.187-.53-.375.894-.563 1.753-.563 2.577 0 1.435.434 2.458 1.3 3.07.868.61 2.11.917 3.727.917h8.228c3.117 0 5.754.212 7.91.635 2.156.423 3.908 1.1 5.256 2.03 1.348.928 2.32 2.122 2.918 3.58.598 1.46.896 3.224.896 5.294 0 2.023-.498 3.935-1.494 5.734-.996 1.8-2.472 3.37-4.43 4.71-1.956 1.342-4.394 2.407-7.312 3.195-2.918.788-6.287 1.182-10.107 1.182-2.742 0-5.22-.2-7.436-.6-2.216-.4-4.108-1.023-5.68-1.87-1.57-.847-2.782-1.93-3.637-3.247-.856-1.317-1.283-2.893-1.283-4.728 0-1.2.18-2.294.544-3.282.364-.988.833-1.876 1.407-2.665A12.048 12.048 0 0 1 425.128 62c.703-.6 1.394-1.098 2.074-1.498zM440 42.434c1.1 0 2.02-.236 2.76-.706a5.586 5.586 0 0 0 1.793-1.835 7.77 7.77 0 0 0 .967-2.56c.188-.952.282-1.922.282-2.91 0-2.682-.546-4.747-1.636-6.193-1.09-1.447-2.69-2.17-4.8-2.17-.702 0-1.41.11-2.126.335a5.29 5.29 0 0 0-1.934 1.093c-.574.506-1.037 1.165-1.388 1.977-.352.81-.528 1.805-.528 2.982 0 1.34.094 2.617.282 3.83.187 1.21.527 2.275 1.02 3.192a5.617 5.617 0 0 0 2.02 2.17c.856.53 1.952.794 3.288.794zm-8.227 24.173c0 1.388.247 2.593.74 3.617a7.227 7.227 0 0 0 2.056 2.576c.88.694 1.922 1.212 3.13 1.553 1.206.34 2.524.51 3.954.51 1.547 0 2.918-.087 4.113-.263 1.196-.177 2.198-.5 3.006-.97a4.637 4.637 0 0 0 1.845-1.96c.422-.835.633-1.91.633-3.228 0-.73-.035-1.494-.106-2.294a4.11 4.11 0 0 0-.843-2.17c-.494-.647-1.28-1.183-2.357-1.606-1.078-.424-2.613-.635-4.605-.635h-6.223c-.82 0-1.582-.012-2.285-.036a48.557 48.557 0 0 1-2.004-.104c-.305.564-.557 1.246-.756 2.046-.2.8-.3 1.788-.3 2.965zM467.21 50.127h5.8l2.214 3.846c.282.306.62.67 1.02 1.094a9.514 9.514 0 0 0 3.252 2.24c.69.295 1.47.466 2.338.513 2.11.117 3.71-.236 4.8-1.06 1.088-.822 1.622-1.94 1.598-3.352-.023-.635-.287-1.24-.79-1.817-.505-.575-1.18-1.14-2.022-1.693a26.085 26.085 0 0 0-2.9-1.623c-1.09-.53-2.233-1.065-3.428-1.606a60.735 60.735 0 0 1-4.782-2.488c-1.523-.882-2.86-1.888-4.007-3.017a13.475 13.475 0 0 1-2.743-3.83c-.68-1.422-1.007-3.05-.984-4.886.023-1.412.3-2.665.826-3.76a9.646 9.646 0 0 1 2.11-2.875 13.372 13.372 0 0 1 3.023-2.117 19.984 19.984 0 0 1 3.568-1.43 28.17 28.17 0 0 1 3.744-.83 27.985 27.985 0 0 1 3.57-.316 42.23 42.23 0 0 1 4.042.122c1.358.106 2.653.26 3.884.46 1.23.2 2.367.423 3.41.67 1.043.247 1.927.51 2.654.794V32.8h-6.188l-1.968-4.376c-.61-.73-1.365-1.377-2.268-1.94a5.427 5.427 0 0 0-2.935-.848c-.658 0-1.296.06-1.917.176a5.395 5.395 0 0 0-1.653.583c-.48.27-.867.61-1.16 1.023-.293.412-.44.9-.44 1.464 0 .777.16 1.494.475 2.153.317.66.756 1.276 1.32 1.853.56.576 1.235 1.11 2.02 1.605.785.494 1.647.953 2.584 1.377a326.96 326.96 0 0 0 3.427 1.552c1.16.518 2.29 1.07 3.392 1.66a29.94 29.94 0 0 1 3.11 1.905 13.094 13.094 0 0 1 2.55 2.33c.726.87 1.3 1.84 1.722 2.91.422 1.07.633 2.288.633 3.653 0 2.33-.504 4.3-1.512 5.91-1.008 1.612-2.367 2.924-4.078 3.935-1.71 1.012-3.703 1.74-5.976 2.188-2.275.447-4.677.67-7.208.67-1.125 0-2.315-.058-3.57-.176a34.563 34.563 0 0 1-3.76-.564 30.11 30.11 0 0 1-3.64-.99 16.313 16.313 0 0 1-3.163-1.445v-9.28z"/></g></svg>