<?xml version="1.0" standalone="no"?><!DOCTYPE svg PUBLIC "-//W3C//DTD SVG 1.1//EN" "http://www.w3.org/Graphics/SVG/1.1/DTD/svg11.dtd"><svg width="100%" height="100%" viewBox="0 0 501 81" version="1.1" xmlns="http://www.w3.org/2000/svg" xmlns:xlink="http://www.w3.org/1999/xlink" xml:space="preserve" style="fill-rule:evenodd;clip-rule:evenodd;stroke-linejoin:round;stroke-miterlimit:1.41421;"><g><path d="M1.199,45.186l5.273,0l3.27,8.505c0.632,0.823 1.33,1.476 2.091,1.958c0.762,0.483 1.571,0.847 2.426,1.094c0.856,0.247 1.74,0.4 2.654,0.459c0.915,0.059 1.829,0.088 2.743,0.088c0.914,0 1.863,-0.123 2.847,-0.37c0.985,-0.247 1.881,-0.671 2.69,-1.271c0.808,-0.6 1.476,-1.399 2.004,-2.399c0.527,-1 0.791,-2.265 0.791,-3.794c0,-1.2 -0.364,-2.294 -1.09,-3.282c-0.727,-0.988 -1.688,-1.929 -2.883,-2.823c-1.195,-0.894 -2.561,-1.753 -4.096,-2.576c-1.535,-0.824 -3.111,-1.682 -4.728,-2.576c-1.758,-0.941 -3.487,-1.953 -5.186,-3.035c-1.699,-1.082 -3.217,-2.288 -4.552,-3.617c-1.336,-1.329 -2.415,-2.817 -3.235,-4.464c-0.82,-1.647 -1.23,-3.517 -1.23,-5.611c0,-2.424 0.539,-4.57 1.617,-6.441c1.078,-1.87 2.496,-3.44 4.254,-4.711c1.758,-1.27 3.767,-2.235 6.029,-2.893c2.262,-0.659 4.588,-0.989 6.979,-0.989c1.921,0 3.82,0.089 5.695,0.265c1.875,0.177 3.592,0.394 5.15,0.653c1.559,0.259 2.883,0.535 3.973,0.829c1.09,0.294 1.822,0.559 2.197,0.794l0,11.681l-5.765,0l-3.305,-7.411c-0.117,-0.141 -0.393,-0.306 -0.826,-0.494c-0.434,-0.188 -0.967,-0.37 -1.6,-0.547c-0.633,-0.176 -1.324,-0.323 -2.074,-0.441c-0.75,-0.118 -1.488,-0.176 -2.215,-0.176c-0.937,0 -1.893,0.094 -2.865,0.282c-0.973,0.188 -1.852,0.5 -2.637,0.935c-0.785,0.435 -1.43,1.024 -1.933,1.765c-0.504,0.741 -0.768,1.676 -0.792,2.805c0,1.318 0.276,2.517 0.827,3.6c0.55,1.082 1.295,2.082 2.232,2.999c0.938,0.918 2.027,1.776 3.27,2.576c1.242,0.8 2.554,1.588 3.937,2.365c1.313,0.729 2.654,1.458 4.026,2.188c1.371,0.729 2.701,1.499 3.99,2.311c1.289,0.812 2.502,1.67 3.638,2.576c1.137,0.906 2.127,1.906 2.971,3c0.844,1.094 1.512,2.288 2.004,3.582c0.492,1.294 0.738,2.729 0.738,4.305c0,2.258 -0.48,4.352 -1.441,6.281c-0.961,1.93 -2.338,3.6 -4.131,5.012c-1.793,1.411 -3.984,2.523 -6.574,3.334c-2.59,0.812 -5.514,1.218 -8.772,1.218c-1.64,0 -3.351,-0.083 -5.132,-0.247c-1.782,-0.165 -3.504,-0.388 -5.168,-0.671c-1.665,-0.282 -3.206,-0.623 -4.623,-1.023c-1.418,-0.4 -2.573,-0.835 -3.463,-1.306l0,-14.292Z" style="fill:#000;fill-rule:nonzero;"/><path d="M46.851,28.565l-5.344,0l0,-3.988c1.289,-0.212 2.485,-0.517 3.586,-0.917c1.102,-0.4 2.051,-0.953 2.848,-1.659c0.75,-0.682 1.5,-1.747 2.25,-3.194c0.75,-1.447 1.512,-3.44 2.285,-5.981l5.906,0l0,9.422l12.024,0l0,6.317l-11.461,0l0,12.88c0,3.153 0.07,5.653 0.211,7.499c0.14,1.847 0.375,3.253 0.703,4.217c0.328,0.965 0.768,1.588 1.318,1.871c0.551,0.282 1.248,0.423 2.092,0.423c0.469,0 0.996,-0.029 1.582,-0.088c0.586,-0.059 1.16,-0.141 1.723,-0.247c0.562,-0.106 1.09,-0.235 1.582,-0.388c0.492,-0.153 0.902,-0.324 1.23,-0.512l1.828,3.988c-0.562,0.588 -1.318,1.147 -2.267,1.676c-0.949,0.529 -2.051,0.994 -3.305,1.394c-1.254,0.4 -2.613,0.718 -4.078,0.953c-1.465,0.235 -2.982,0.353 -4.553,0.353c-2.039,0 -3.715,-0.259 -5.027,-0.777c-1.313,-0.517 -2.35,-1.305 -3.111,-2.364c-0.762,-1.059 -1.289,-2.406 -1.582,-4.041c-0.293,-1.635 -0.44,-3.582 -0.44,-5.84l0,-20.997Z" style="fill:#000;fill-rule:nonzero;"/><path d="M73.484,41.939c0.047,-3.623 0.674,-6.74 1.881,-9.351c1.207,-2.612 2.801,-4.764 4.781,-6.458c1.981,-1.694 4.26,-2.947 6.838,-3.758c2.578,-0.812 5.25,-1.241 8.016,-1.289c3.14,-0.023 5.959,0.377 8.455,1.2c2.496,0.824 4.617,2.065 6.363,3.723c1.746,1.659 3.088,3.735 4.025,6.229c0.938,2.494 1.407,5.376 1.407,8.646c0,3.717 -0.586,6.934 -1.758,9.651c-1.172,2.718 -2.736,4.97 -4.693,6.758c-1.957,1.788 -4.213,3.118 -6.768,3.988c-2.555,0.87 -5.227,1.306 -8.016,1.306c-3.75,0 -6.931,-0.541 -9.545,-1.624c-2.613,-1.082 -4.74,-2.558 -6.38,-4.428c-1.641,-1.871 -2.831,-4.065 -3.569,-6.582c-0.738,-2.517 -1.084,-5.187 -1.037,-8.011ZM94.402,57.431c1.641,0 2.959,-0.482 3.955,-1.446c0.996,-0.965 1.764,-2.212 2.303,-3.741c0.539,-1.529 0.902,-3.241 1.09,-5.135c0.187,-1.894 0.281,-3.77 0.281,-5.628c0,-1.106 -0.035,-2.253 -0.106,-3.441c-0.07,-1.188 -0.205,-2.347 -0.404,-3.476c-0.199,-1.129 -0.469,-2.2 -0.808,-3.211c-0.34,-1.012 -0.78,-1.894 -1.319,-2.647c-0.539,-0.753 -1.195,-1.353 -1.969,-1.8c-0.773,-0.447 -1.687,-0.67 -2.742,-0.67c-1.078,0 -2.027,0.206 -2.847,0.617c-0.821,0.412 -1.53,0.971 -2.127,1.677c-0.598,0.705 -1.09,1.529 -1.477,2.47c-0.387,0.941 -0.691,1.958 -0.914,3.052c-0.223,1.094 -0.381,2.229 -0.475,3.406c-0.093,1.176 -0.14,2.341 -0.14,3.493c0,1.012 0.047,2.118 0.14,3.318c0.094,1.199 0.247,2.411 0.457,3.634c0.211,1.224 0.504,2.406 0.879,3.547c0.375,1.141 0.85,2.158 1.424,3.052c0.574,0.894 1.254,1.606 2.039,2.135c0.785,0.53 1.705,0.794 2.76,0.794Z" style="fill:#000;fill-rule:nonzero;"/><path d="M119.031,56.937l4.324,-0.882l0,-23.22l-4.781,-3.388l0,-4.446l13.043,-3.882l2.531,0.635l0,6.917c0.305,-1.177 0.867,-2.235 1.688,-3.176c0.82,-0.941 1.734,-1.735 2.742,-2.382c1.008,-0.647 2.027,-1.141 3.059,-1.483c1.031,-0.341 1.91,-0.511 2.636,-0.511c0.821,0 1.582,0.035 2.285,0.106c0.704,0.07 1.207,0.176 1.512,0.317l0,11.152c-0.281,-0.283 -0.68,-0.53 -1.195,-0.741c-0.516,-0.212 -1.061,-0.389 -1.635,-0.53c-0.574,-0.141 -1.148,-0.247 -1.723,-0.317c-0.574,-0.071 -1.06,-0.106 -1.459,-0.106c-0.984,0 -1.851,0.059 -2.601,0.176c-0.75,0.118 -1.377,0.253 -1.881,0.406c-0.504,0.153 -0.902,0.3 -1.195,0.441c-0.293,0.141 -0.487,0.247 -0.58,0.318l0,23.397l8.191,1.199l0,4.8l-24.961,0l0,-4.8Z" style="fill:#000;fill-rule:nonzero;"/><path d="M155.795,70.947c0.609,0.118 1.336,0.253 2.179,0.406c0.844,0.153 1.852,0.206 3.024,0.159c0.562,-0.024 1.23,-0.135 2.004,-0.335c0.773,-0.2 1.57,-0.636 2.39,-1.306c0.821,-0.671 1.612,-1.647 2.373,-2.929c0.762,-1.282 1.401,-3.017 1.916,-5.205l-1.968,0l-13.852,-32.255l-3.058,-0.917l0,-6.317l20.566,0l0,6.317l-4.008,0.882l6.926,18.845l0.562,3.634l1.02,-3.634l5.73,-18.916l-4.816,-0.811l0,-6.317l17.859,0l0,6.317l-3.515,0.741c-1.735,4.423 -3.258,8.281 -4.571,11.575c-1.312,3.293 -2.449,6.14 -3.41,8.54c-0.961,2.399 -1.769,4.405 -2.426,6.017c-0.656,1.611 -1.201,2.952 -1.634,4.023c-0.434,1.07 -0.785,1.935 -1.055,2.593c-0.269,0.659 -0.486,1.212 -0.65,1.659c-1.032,2.752 -2.075,5.193 -3.129,7.322c-1.055,2.13 -2.209,3.923 -3.463,5.382c-1.254,1.459 -2.643,2.564 -4.166,3.317c-1.524,0.753 -3.27,1.13 -5.238,1.13c-0.493,0 -1.014,-0.006 -1.565,-0.018c-0.551,-0.012 -1.096,-0.041 -1.635,-0.088c-0.539,-0.047 -1.025,-0.1 -1.459,-0.159c-0.433,-0.059 -0.767,-0.147 -1.002,-0.265l0.071,-9.387Z" style="fill:#000;fill-rule:nonzero;"/><path d="M197.49,50.127l5.801,0l2.215,3.846c0.281,0.306 0.621,0.671 1.019,1.094c0.399,0.424 0.867,0.829 1.406,1.218c0.539,0.388 1.155,0.729 1.846,1.023c0.692,0.294 1.471,0.465 2.338,0.512c2.109,0.117 3.709,-0.236 4.799,-1.059c1.09,-0.823 1.623,-1.941 1.599,-3.353c-0.023,-0.635 -0.287,-1.241 -0.791,-1.817c-0.503,-0.576 -1.177,-1.141 -2.021,-1.694c-0.844,-0.553 -1.811,-1.094 -2.9,-1.623c-1.09,-0.529 -2.233,-1.065 -3.428,-1.606c-1.664,-0.776 -3.258,-1.605 -4.781,-2.488c-1.524,-0.882 -2.86,-1.888 -4.008,-3.017c-1.149,-1.129 -2.063,-2.405 -2.742,-3.829c-0.68,-1.423 -1.008,-3.052 -0.985,-4.887c0.024,-1.412 0.299,-2.665 0.826,-3.759c0.528,-1.094 1.231,-2.052 2.11,-2.876c0.879,-0.823 1.886,-1.529 3.023,-2.117c1.137,-0.588 2.326,-1.065 3.569,-1.429c1.242,-0.365 2.49,-0.641 3.744,-0.83c1.254,-0.188 2.443,-0.294 3.568,-0.317c1.336,-0.024 2.684,0.017 4.043,0.123c1.359,0.106 2.654,0.259 3.885,0.459c1.23,0.2 2.367,0.424 3.41,0.671c1.043,0.247 1.928,0.511 2.654,0.794l0,9.634l-6.187,0l-1.969,-4.376c-0.609,-0.73 -1.365,-1.377 -2.268,-1.941c-0.902,-0.565 -1.88,-0.847 -2.935,-0.847c-0.656,0 -1.295,0.059 -1.916,0.176c-0.621,0.118 -1.172,0.312 -1.652,0.583c-0.481,0.27 -0.868,0.611 -1.161,1.023c-0.293,0.412 -0.439,0.9 -0.439,1.464c0,0.777 0.158,1.494 0.475,2.153c0.316,0.659 0.755,1.276 1.318,1.853c0.562,0.576 1.236,1.111 2.021,1.605c0.786,0.494 1.647,0.953 2.584,1.377c1.125,0.517 2.268,1.035 3.428,1.552c1.16,0.518 2.291,1.071 3.393,1.659c1.101,0.588 2.138,1.223 3.111,1.906c0.973,0.682 1.822,1.458 2.549,2.329c0.726,0.87 1.301,1.841 1.722,2.911c0.422,1.071 0.633,2.288 0.633,3.653c0,2.329 -0.504,4.299 -1.511,5.91c-1.008,1.612 -2.368,2.924 -4.079,3.935c-1.711,1.012 -3.703,1.741 -5.976,2.188c-2.274,0.447 -4.676,0.671 -7.207,0.671c-1.125,0 -2.315,-0.059 -3.569,-0.177c-1.253,-0.117 -2.507,-0.306 -3.761,-0.564c-1.254,-0.259 -2.467,-0.589 -3.639,-0.989c-1.172,-0.399 -2.226,-0.882 -3.164,-1.446l0,-9.281Z" style="fill:#000;fill-rule:nonzero;"/><path d="M235.037,42.998c0,-3.011 0.492,-5.846 1.476,-8.505c0.985,-2.658 2.403,-4.975 4.254,-6.952c1.852,-1.976 4.114,-3.54 6.786,-4.693c2.671,-1.153 5.695,-1.729 9.07,-1.729c2.836,0 5.273,0.364 7.312,1.094c2.039,0.729 3.715,1.747 5.028,3.052c1.312,1.306 2.297,2.865 2.953,4.676c0.656,1.812 1.019,3.788 1.09,5.929c0.047,1.482 0.011,2.799 -0.106,3.952c-0.117,1.153 -0.246,2.223 -0.387,3.211l-24.503,0c0.328,4.165 1.4,7.305 3.216,9.423c1.817,2.117 4.459,3.176 7.928,3.176c1.711,0 3.533,-0.183 5.467,-0.547c1.933,-0.365 3.849,-0.971 5.748,-1.818l1.863,4.411c-0.89,0.753 -1.974,1.447 -3.252,2.083c-1.277,0.635 -2.666,1.176 -4.166,1.623c-1.5,0.447 -3.088,0.794 -4.763,1.041c-1.676,0.247 -3.37,0.347 -5.081,0.3c-3.187,-0.071 -6.017,-0.553 -8.49,-1.447c-2.472,-0.894 -4.558,-2.182 -6.258,-3.864c-1.699,-1.682 -2.988,-3.729 -3.867,-6.141c-0.879,-2.411 -1.318,-5.169 -1.318,-8.275ZM260.912,37.352c0.07,-0.871 0.141,-1.806 0.211,-2.806c0.07,-1 0.064,-1.976 -0.018,-2.929c-0.082,-0.952 -0.287,-1.841 -0.615,-2.664c-0.328,-0.823 -0.844,-1.482 -1.547,-1.976c-0.422,-0.306 -0.914,-0.535 -1.476,-0.688c-0.563,-0.153 -1.219,-0.23 -1.969,-0.23c-1.36,0 -2.496,0.336 -3.41,1.006c-0.914,0.671 -1.659,1.541 -2.233,2.611c-0.574,1.071 -0.996,2.277 -1.265,3.618c-0.27,1.341 -0.452,2.693 -0.545,4.058l12.867,0Z" style="fill:#000;fill-rule:nonzero;"/><path d="M282.392,28.565l-5.343,0l0,-3.988c1.289,-0.212 2.484,-0.517 3.586,-0.917c1.101,-0.4 2.05,-0.953 2.847,-1.659c0.75,-0.682 1.5,-1.747 2.25,-3.194c0.75,-1.447 1.512,-3.44 2.285,-5.981l5.907,0l0,9.422l12.023,0l0,6.317l-11.461,0l0,12.88c0,3.153 0.07,5.653 0.211,7.499c0.141,1.847 0.375,3.253 0.703,4.217c0.328,0.965 0.768,1.588 1.319,1.871c0.55,0.282 1.248,0.423 2.091,0.423c0.469,0 0.996,-0.029 1.582,-0.088c0.586,-0.059 1.161,-0.141 1.723,-0.247c0.563,-0.106 1.09,-0.235 1.582,-0.388c0.492,-0.153 0.902,-0.324 1.231,-0.512l1.828,3.988c-0.563,0.588 -1.319,1.147 -2.268,1.676c-0.949,0.529 -2.051,0.994 -3.305,1.394c-1.254,0.4 -2.613,0.718 -4.078,0.953c-1.465,0.235 -2.982,0.353 -4.552,0.353c-2.04,0 -3.715,-0.259 -5.028,-0.777c-1.312,-0.517 -2.349,-1.305 -3.111,-2.364c-0.762,-1.059 -1.289,-2.406 -1.582,-4.041c-0.293,-1.635 -0.44,-3.582 -0.44,-5.84l0,-20.997Z" style="fill:#000;fill-rule:nonzero;"/><path d="M314.877,28.565l-5.344,0l0,-3.988c1.289,-0.212 2.484,-0.517 3.586,-0.917c1.101,-0.4 2.051,-0.953 2.848,-1.659c0.75,-0.682 1.5,-1.747 2.25,-3.194c0.75,-1.447 1.511,-3.44 2.285,-5.981l5.906,0l0,9.422l12.023,0l0,6.317l-11.461,0l0,12.88c0,3.153 0.071,5.653 0.211,7.499c0.141,1.847 0.375,3.253 0.704,4.217c0.328,0.965 0.767,1.588 1.318,1.871c0.551,0.282 1.248,0.423 2.092,0.423c0.468,0 0.996,-0.029 1.582,-0.088c0.586,-0.059 1.16,-0.141 1.722,-0.247c0.563,-0.106 1.09,-0.235 1.582,-0.388c0.493,-0.153 0.903,-0.324 1.231,-0.512l1.828,3.988c-0.562,0.588 -1.318,1.147 -2.268,1.676c-0.949,0.529 -2.05,0.994 -3.304,1.394c-1.254,0.4 -2.614,0.718 -4.078,0.953c-1.465,0.235 -2.983,0.353 -4.553,0.353c-2.039,0 -3.715,-0.259 -5.027,-0.777c-1.313,-0.517 -2.35,-1.305 -3.112,-2.364c-0.761,-1.059 -1.289,-2.406 -1.582,-4.041c-0.293,-1.635 -0.439,-3.582 -0.439,-5.84l0,-20.997Z" style="fill:#000;fill-rule:nonzero;"/><path d="M353.619,14.978c-0.914,0 -1.811,-0.152 -2.69,-0.458c-0.878,-0.306 -1.652,-0.741 -2.32,-1.306c-0.668,-0.565 -1.207,-1.259 -1.617,-2.082c-0.41,-0.823 -0.615,-1.753 -0.615,-2.788c0,-1.129 0.258,-2.176 0.773,-3.141c0.516,-0.964 1.184,-1.799 2.004,-2.505c0.82,-0.706 1.74,-1.259 2.76,-1.659c1.019,-0.4 2.045,-0.6 3.076,-0.6c1.266,0 2.35,0.177 3.252,0.53c0.902,0.353 1.646,0.835 2.232,1.446c0.586,0.612 1.02,1.318 1.301,2.118c0.281,0.8 0.422,1.658 0.422,2.576c0,1.2 -0.24,2.282 -0.721,3.247c-0.48,0.964 -1.125,1.793 -1.933,2.487c-0.809,0.694 -1.729,1.224 -2.76,1.588c-1.031,0.365 -2.086,0.547 -3.164,0.547ZM343.775,56.937l4.746,-0.988l0,-21.95l-4.5,-5.081l0,-3.282l13.922,-4.517l2.988,0.882l0,34.019l5.063,0.917l0,4.8l-22.219,0l0,-4.8Z" style="fill:#000;fill-rule:nonzero;"/><path d="M370.705,56.937l4.394,-0.882l0,-23.22l-4.781,-3.388l0,-4.446l13.043,-3.882l2.637,0.67l0,5.223c0.914,-0.894 1.945,-1.706 3.094,-2.435c1.148,-0.729 2.361,-1.347 3.638,-1.853c1.278,-0.505 2.596,-0.899 3.955,-1.182c1.36,-0.282 2.707,-0.423 4.043,-0.423c2.25,0 4.114,0.359 5.59,1.076c1.477,0.718 2.654,1.759 3.533,3.123c0.879,1.365 1.5,3.029 1.864,4.994c0.363,1.964 0.545,4.205 0.545,6.722l0,18.986l4.957,0.917l0,4.8l-22.43,0l0,-4.8l5.027,-0.988l0,-17.327c0,-1.882 -0.088,-3.429 -0.263,-4.64c-0.176,-1.212 -0.51,-2.165 -1.002,-2.859c-0.493,-0.694 -1.19,-1.176 -2.092,-1.447c-0.903,-0.27 -2.092,-0.405 -3.569,-0.405c-0.21,0 -0.556,0.041 -1.037,0.123c-0.48,0.082 -0.99,0.194 -1.529,0.335c-0.539,0.142 -1.066,0.312 -1.582,0.512c-0.516,0.2 -0.914,0.418 -1.195,0.653l0,25.091l4.324,0.952l0,4.8l-21.164,0l0,-4.8Z" style="fill:#000;fill-rule:nonzero;"/><path d="M427.201,60.502c-0.914,-0.353 -1.629,-0.765 -2.145,-1.236c-0.515,-0.47 -0.908,-0.993 -1.177,-1.57c-0.27,-0.576 -0.44,-1.188 -0.51,-1.835c-0.07,-0.647 -0.106,-1.323 -0.106,-2.029c0,-0.565 0.135,-1.194 0.405,-1.888c0.269,-0.694 0.627,-1.4 1.072,-2.117c0.445,-0.718 0.955,-1.412 1.529,-2.082c0.575,-0.671 1.166,-1.265 1.776,-1.783c-2.157,-1.035 -3.832,-2.446 -5.028,-4.234c-1.195,-1.788 -1.793,-3.976 -1.793,-6.564c0,-2.47 0.551,-4.588 1.653,-6.352c1.101,-1.765 2.543,-3.211 4.324,-4.341c1.781,-1.129 3.797,-1.958 6.047,-2.488c2.25,-0.529 4.535,-0.817 6.855,-0.864c2.672,-0.047 5.098,0.194 7.278,0.723c2.179,0.53 4.043,1.394 5.589,2.594c0.235,-0.471 0.545,-0.906 0.932,-1.306c0.387,-0.4 0.891,-0.747 1.512,-1.041c0.621,-0.294 1.377,-0.523 2.267,-0.688c0.891,-0.165 1.934,-0.247 3.129,-0.247l3.094,0l0,8.469l-7.277,0c0.422,1.318 0.633,2.777 0.633,4.376c0,2.4 -0.452,4.482 -1.354,6.247c-0.902,1.764 -2.156,3.229 -3.762,4.393c-1.605,1.165 -3.515,2.029 -5.73,2.594c-2.215,0.564 -4.635,0.847 -7.26,0.847c-2.273,0 -4.336,-0.177 -6.187,-0.53c-0.375,0.894 -0.563,1.753 -0.563,2.577c0,1.435 0.434,2.458 1.301,3.07c0.867,0.611 2.109,0.917 3.726,0.917l8.227,0c3.117,0 5.754,0.212 7.91,0.635c2.156,0.424 3.908,1.1 5.256,2.03c1.348,0.929 2.32,2.123 2.918,3.581c0.598,1.459 0.896,3.224 0.896,5.294c0,2.023 -0.498,3.935 -1.494,5.734c-0.996,1.8 -2.472,3.37 -4.429,4.711c-1.957,1.341 -4.395,2.406 -7.313,3.194c-2.918,0.788 -6.287,1.182 -10.107,1.182c-2.742,0 -5.221,-0.2 -7.436,-0.6c-2.215,-0.4 -4.107,-1.023 -5.678,-1.87c-1.57,-0.847 -2.783,-1.929 -3.638,-3.247c-0.856,-1.317 -1.283,-2.893 -1.283,-4.728c0,-1.2 0.181,-2.294 0.544,-3.282c0.364,-0.988 0.833,-1.876 1.407,-2.665c0.574,-0.788 1.213,-1.482 1.916,-2.082c0.703,-0.6 1.394,-1.099 2.074,-1.499ZM439.998,42.434c1.101,0 2.021,-0.236 2.76,-0.706c0.738,-0.471 1.336,-1.082 1.793,-1.835c0.457,-0.753 0.779,-1.606 0.966,-2.559c0.188,-0.953 0.282,-1.923 0.282,-2.911c0,-2.682 -0.545,-4.747 -1.635,-6.193c-1.09,-1.447 -2.69,-2.171 -4.799,-2.171c-0.703,0 -1.412,0.112 -2.127,0.336c-0.715,0.223 -1.359,0.588 -1.934,1.093c-0.574,0.506 -1.037,1.165 -1.388,1.977c-0.352,0.811 -0.528,1.805 -0.528,2.982c0,1.341 0.094,2.617 0.282,3.829c0.187,1.211 0.527,2.276 1.019,3.193c0.492,0.918 1.166,1.641 2.022,2.17c0.855,0.53 1.951,0.795 3.287,0.795ZM431.771,66.607c0,1.388 0.246,2.593 0.739,3.617c0.492,1.023 1.177,1.882 2.056,2.576c0.879,0.694 1.922,1.212 3.129,1.553c1.207,0.341 2.525,0.511 3.955,0.511c1.547,0 2.918,-0.088 4.113,-0.264c1.196,-0.177 2.198,-0.5 3.006,-0.971c0.809,-0.47 1.424,-1.123 1.846,-1.958c0.422,-0.836 0.633,-1.912 0.633,-3.229c0,-0.73 -0.035,-1.494 -0.106,-2.294c-0.07,-0.8 -0.351,-1.523 -0.843,-2.17c-0.493,-0.647 -1.278,-1.183 -2.356,-1.606c-1.078,-0.424 -2.613,-0.635 -4.605,-0.635l-6.223,0c-0.82,0 -1.582,-0.012 -2.285,-0.036c-0.703,-0.023 -1.371,-0.058 -2.004,-0.105c-0.305,0.564 -0.557,1.246 -0.756,2.046c-0.199,0.8 -0.299,1.788 -0.299,2.965Z" style="fill:#000;fill-rule:nonzero;"/><path d="M467.209,50.127l5.801,0l2.214,3.846c0.282,0.306 0.621,0.671 1.02,1.094c0.398,0.424 0.867,0.829 1.406,1.218c0.539,0.388 1.154,0.729 1.846,1.023c0.691,0.294 1.471,0.465 2.338,0.512c2.109,0.117 3.709,-0.236 4.799,-1.059c1.089,-0.823 1.623,-1.941 1.599,-3.353c-0.023,-0.635 -0.287,-1.241 -0.791,-1.817c-0.504,-0.576 -1.178,-1.141 -2.021,-1.694c-0.844,-0.553 -1.811,-1.094 -2.901,-1.623c-1.09,-0.529 -2.232,-1.065 -3.427,-1.606c-1.664,-0.776 -3.258,-1.605 -4.782,-2.488c-1.523,-0.882 -2.859,-1.888 -4.007,-3.017c-1.149,-1.129 -2.063,-2.405 -2.743,-3.829c-0.679,-1.423 -1.007,-3.052 -0.984,-4.887c0.023,-1.412 0.299,-2.665 0.826,-3.759c0.527,-1.094 1.231,-2.052 2.11,-2.876c0.878,-0.823 1.886,-1.529 3.023,-2.117c1.137,-0.588 2.326,-1.065 3.568,-1.429c1.242,-0.365 2.491,-0.641 3.744,-0.83c1.254,-0.188 2.444,-0.294 3.569,-0.317c1.336,-0.024 2.683,0.017 4.043,0.123c1.359,0.106 2.654,0.259 3.885,0.459c1.23,0.2 2.367,0.424 3.41,0.671c1.043,0.247 1.927,0.511 2.654,0.794l0,9.634l-6.188,0l-1.968,-4.376c-0.61,-0.73 -1.365,-1.377 -2.268,-1.941c-0.902,-0.565 -1.881,-0.847 -2.935,-0.847c-0.657,0 -1.295,0.059 -1.916,0.176c-0.621,0.118 -1.172,0.312 -1.653,0.583c-0.48,0.27 -0.867,0.611 -1.16,1.023c-0.293,0.412 -0.439,0.9 -0.439,1.464c0,0.777 0.158,1.494 0.474,2.153c0.317,0.659 0.756,1.276 1.319,1.853c0.562,0.576 1.236,1.111 2.021,1.605c0.785,0.494 1.647,0.953 2.584,1.377c1.125,0.517 2.268,1.035 3.428,1.552c1.16,0.518 2.291,1.071 3.392,1.659c1.102,0.588 2.139,1.223 3.112,1.906c0.972,0.682 1.822,1.458 2.549,2.329c0.726,0.87 1.3,1.841 1.722,2.911c0.422,1.071 0.633,2.288 0.633,3.653c0,2.329 -0.504,4.299 -1.512,5.91c-1.008,1.612 -2.367,2.924 -4.078,3.935c-1.711,1.012 -3.703,1.741 -5.976,2.188c-2.274,0.447 -4.676,0.671 -7.207,0.671c-1.125,0 -2.315,-0.059 -3.569,-0.177c-1.254,-0.117 -2.508,-0.306 -3.761,-0.564c-1.254,-0.259 -2.467,-0.589 -3.639,-0.989c-1.172,-0.399 -2.227,-0.882 -3.164,-1.446l0,-9.281Z" style="fill:#000;fill-rule:nonzero;"/></g></svg>