<svg viewBox="0 0 501 81" xmlns="http://www.w3.org/2000/svg" fill-rule="evenodd" clip-rule="evenodd" stroke-linejoin="round" stroke-miterlimit="1.414"><g fill-rule="nonzero"><path d="M1.199 45.186h5.273l3.27 8.505c.632.823 1.33 1.476 2.091 1.958a9.365 9.365 0 0 0 2.426 1.094c.856.247 1.74.4 2.654.459.915.059 1.829.088 2.743.088.914 0 1.863-.123 2.847-.37a7.556 7.556 0 0 0 2.69-1.271c.808-.6 1.476-1.399 2.004-2.399.527-1 .791-2.265.791-3.794 0-1.2-.364-2.294-1.09-3.282-.727-.988-1.688-1.929-2.883-2.823-1.195-.894-2.561-1.753-4.096-2.576a434.47 434.47 0 0 1-4.728-2.576 79.472 79.472 0 0 1-5.186-3.035 26.91 26.91 0 0 1-4.552-3.617 16.874 16.874 0 0 1-3.235-4.464c-.82-1.647-1.23-3.517-1.23-5.611 0-2.424.539-4.57 1.617-6.441a14.991 14.991 0 0 1 4.254-4.711c1.758-1.27 3.767-2.235 6.029-2.893a24.823 24.823 0 0 1 6.979-.989c1.921 0 3.82.089 5.695.265 1.875.177 3.592.394 5.15.653 1.559.259 2.883.535 3.973.829 1.09.294 1.822.559 2.197.794V20.66h-5.765l-3.305-7.411c-.117-.141-.393-.306-.826-.494-.434-.188-.967-.37-1.6-.547a18.478 18.478 0 0 0-2.074-.441 14.231 14.231 0 0 0-2.215-.176c-.937 0-1.893.094-2.865.282-.973.188-1.852.5-2.637.935a5.567 5.567 0 0 0-1.933 1.765c-.504.741-.768 1.676-.792 2.805 0 1.318.276 2.517.827 3.6.55 1.082 1.295 2.082 2.232 2.999a20.559 20.559 0 0 0 3.27 2.576 76.15 76.15 0 0 0 3.937 2.365c1.313.729 2.654 1.458 4.026 2.188a62.78 62.78 0 0 1 3.99 2.311 40.137 40.137 0 0 1 3.638 2.576 17.514 17.514 0 0 1 2.971 3 13.947 13.947 0 0 1 2.004 3.582c.492 1.294.738 2.729.738 4.305 0 2.258-.48 4.352-1.441 6.281-.961 1.93-2.338 3.6-4.131 5.012-1.793 1.411-3.984 2.523-6.574 3.334-2.59.812-5.514 1.218-8.772 1.218a56.04 56.04 0 0 1-5.132-.247 68.483 68.483 0 0 1-5.168-.671 44.251 44.251 0 0 1-4.623-1.023c-1.418-.4-2.573-.835-3.463-1.306V45.186zM46.851 28.565h-5.344v-3.988a19.995 19.995 0 0 0 3.586-.917c1.102-.4 2.051-.953 2.848-1.659.75-.682 1.5-1.747 2.25-3.194.75-1.447 1.512-3.44 2.285-5.981h5.906v9.422h12.024v6.317H58.945v12.88c0 3.153.07 5.653.211 7.499.14 1.847.375 3.253.703 4.217.328.965.768 1.588 1.318 1.871.551.282 1.248.423 2.092.423.469 0 .996-.029 1.582-.088.586-.059 1.16-.141 1.723-.247.562-.106 1.09-.235 1.582-.388a6.187 6.187 0 0 0 1.23-.512l1.828 3.988c-.562.588-1.318 1.147-2.267 1.676-.949.529-2.051.994-3.305 1.394-1.254.4-2.613.718-4.078.953a28.707 28.707 0 0 1-4.553.353c-2.039 0-3.715-.259-5.027-.777-1.313-.517-2.35-1.305-3.111-2.364-.762-1.059-1.289-2.406-1.582-4.041-.293-1.635-.44-3.582-.44-5.84V28.565zM73.484 41.939c.047-3.623.674-6.74 1.881-9.351 1.207-2.612 2.801-4.764 4.781-6.458 1.981-1.694 4.26-2.947 6.838-3.758A28.167 28.167 0 0 1 95 21.083c3.14-.023 5.959.377 8.455 1.2 2.496.824 4.617 2.065 6.363 3.723 1.746 1.659 3.088 3.735 4.025 6.229.938 2.494 1.407 5.376 1.407 8.646 0 3.717-.586 6.934-1.758 9.651-1.172 2.718-2.736 4.97-4.693 6.758a18.999 18.999 0 0 1-6.768 3.988 24.697 24.697 0 0 1-8.016 1.306c-3.75 0-6.931-.541-9.545-1.624-2.613-1.082-4.74-2.558-6.38-4.428-1.641-1.871-2.831-4.065-3.569-6.582-.738-2.517-1.084-5.187-1.037-8.011zm20.918 15.492c1.641 0 2.959-.482 3.955-1.446.996-.965 1.764-2.212 2.303-3.741.539-1.529.902-3.241 1.09-5.135.187-1.894.281-3.77.281-5.628 0-1.106-.035-2.253-.106-3.441a30.27 30.27 0 0 0-.404-3.476 22.23 22.23 0 0 0-.808-3.211c-.34-1.012-.78-1.894-1.319-2.647a6.243 6.243 0 0 0-1.969-1.8c-.773-.447-1.687-.67-2.742-.67-1.078 0-2.027.206-2.847.617a6.687 6.687 0 0 0-2.127 1.677A9.187 9.187 0 0 0 88.232 31a16.861 16.861 0 0 0-.914 3.052 28.335 28.335 0 0 0-.475 3.406 44.31 44.31 0 0 0-.14 3.493c0 1.012.047 2.118.14 3.318.094 1.199.247 2.411.457 3.634.211 1.224.504 2.406.879 3.547s.85 2.158 1.424 3.052c.574.894 1.254 1.606 2.039 2.135.785.53 1.705.794 2.76.794zM119.031 56.937l4.324-.882v-23.22l-4.781-3.388v-4.446l13.043-3.882 2.531.635v6.917a7.719 7.719 0 0 1 1.688-3.176 12.8 12.8 0 0 1 2.742-2.382 13.566 13.566 0 0 1 3.059-1.483c1.031-.341 1.91-.511 2.636-.511.821 0 1.582.035 2.285.106.704.07 1.207.176 1.512.317v11.152c-.281-.283-.68-.53-1.195-.741a11.54 11.54 0 0 0-1.635-.53 14.626 14.626 0 0 0-1.723-.317 12.177 12.177 0 0 0-1.459-.106c-.984 0-1.851.059-2.601.176-.75.118-1.377.253-1.881.406a8.64 8.64 0 0 0-1.195.441c-.293.141-.487.247-.58.318v23.397l8.191 1.199v4.8h-24.961v-4.8zM155.795 70.947c.609.118 1.336.253 2.179.406.844.153 1.852.206 3.024.159.562-.024 1.23-.135 2.004-.335.773-.2 1.57-.636 2.39-1.306.821-.671 1.612-1.647 2.373-2.929.762-1.282 1.401-3.017 1.916-5.205h-1.968l-13.852-32.255-3.058-.917v-6.317h20.566v6.317l-4.008.882 6.926 18.845.562 3.634 1.02-3.634 5.73-18.916-4.816-.811v-6.317h17.859v6.317l-3.515.741a2315.422 2315.422 0 0 1-4.571 11.575 5413.03 5413.03 0 0 1-3.41 8.54c-.961 2.399-1.769 4.405-2.426 6.017-.656 1.611-1.201 2.952-1.634 4.023-.434 1.07-.785 1.935-1.055 2.593a51.303 51.303 0 0 0-.65 1.659c-1.032 2.752-2.075 5.193-3.129 7.322-1.055 2.13-2.209 3.923-3.463 5.382-1.254 1.459-2.643 2.564-4.166 3.317-1.524.753-3.27 1.13-5.238 1.13a72 72 0 0 1-1.565-.018 25.113 25.113 0 0 1-1.635-.088c-.539-.047-1.025-.1-1.459-.159-.433-.059-.767-.147-1.002-.265l.071-9.387zM197.49 50.127h5.801l2.215 3.846c.281.306.621.671 1.019 1.094a9.544 9.544 0 0 0 3.252 2.241c.692.294 1.471.465 2.338.512 2.109.117 3.709-.236 4.799-1.059 1.09-.823 1.623-1.941 1.599-3.353-.023-.635-.287-1.241-.791-1.817-.503-.576-1.177-1.141-2.021-1.694a26.156 26.156 0 0 0-2.9-1.623 141.783 141.783 0 0 0-3.428-1.606 60.538 60.538 0 0 1-4.781-2.488c-1.524-.882-2.86-1.888-4.008-3.017a13.452 13.452 0 0 1-2.742-3.829c-.68-1.423-1.008-3.052-.985-4.887.024-1.412.299-2.665.826-3.759a9.663 9.663 0 0 1 2.11-2.876 13.395 13.395 0 0 1 3.023-2.117 19.964 19.964 0 0 1 3.569-1.429 28.136 28.136 0 0 1 3.744-.83 27.97 27.97 0 0 1 3.568-.317 42.22 42.22 0 0 1 4.043.123 47.07 47.07 0 0 1 3.885.459c1.23.2 2.367.424 3.41.671 1.043.247 1.928.511 2.654.794V32.8h-6.187l-1.969-4.376c-.609-.73-1.365-1.377-2.268-1.941a5.424 5.424 0 0 0-2.935-.847c-.656 0-1.295.059-1.916.176a5.38 5.38 0 0 0-1.652.583 3.5 3.5 0 0 0-1.161 1.023c-.293.412-.439.9-.439 1.464 0 .777.158 1.494.475 2.153a6.97 6.97 0 0 0 1.318 1.853 10.966 10.966 0 0 0 2.021 1.605c.786.494 1.647.953 2.584 1.377a326.96 326.96 0 0 0 3.428 1.552 53.827 53.827 0 0 1 3.393 1.659 30.029 30.029 0 0 1 3.111 1.906 13.065 13.065 0 0 1 2.549 2.329c.726.87 1.301 1.841 1.722 2.911.422 1.071.633 2.288.633 3.653 0 2.329-.504 4.299-1.511 5.91-1.008 1.612-2.368 2.924-4.079 3.935-1.711 1.012-3.703 1.741-5.976 2.188-2.274.447-4.676.671-7.207.671-1.125 0-2.315-.059-3.569-.177a34.637 34.637 0 0 1-3.761-.564 30.11 30.11 0 0 1-3.639-.989 16.34 16.34 0 0 1-3.164-1.446v-9.281zM235.037 42.998c0-3.011.492-5.846 1.476-8.505.985-2.658 2.403-4.975 4.254-6.952 1.852-1.976 4.114-3.54 6.786-4.693 2.671-1.153 5.695-1.729 9.07-1.729 2.836 0 5.273.364 7.312 1.094 2.039.729 3.715 1.747 5.028 3.052 1.312 1.306 2.297 2.865 2.953 4.676.656 1.812 1.019 3.788 1.09 5.929.047 1.482.011 2.799-.106 3.952a79.922 79.922 0 0 1-.387 3.211H248.01c.328 4.165 1.4 7.305 3.216 9.423 1.817 2.117 4.459 3.176 7.928 3.176 1.711 0 3.533-.183 5.467-.547a25.87 25.87 0 0 0 5.748-1.818l1.863 4.411c-.89.753-1.974 1.447-3.252 2.083a26.05 26.05 0 0 1-4.166 1.623c-1.5.447-3.088.794-4.763 1.041-1.676.247-3.37.347-5.081.3-3.187-.071-6.017-.553-8.49-1.447-2.472-.894-4.558-2.182-6.258-3.864-1.699-1.682-2.988-3.729-3.867-6.141-.879-2.411-1.318-5.169-1.318-8.275zm25.875-5.646c.07-.871.141-1.806.211-2.806s.064-1.976-.018-2.929a9.32 9.32 0 0 0-.615-2.664 4.308 4.308 0 0 0-1.547-1.976 4.502 4.502 0 0 0-1.476-.688c-.563-.153-1.219-.23-1.969-.23-1.36 0-2.496.336-3.41 1.006-.914.671-1.659 1.541-2.233 2.611-.574 1.071-.996 2.277-1.265 3.618a31.319 31.319 0 0 0-.545 4.058h12.867zM282.392 28.565h-5.343v-3.988a20.017 20.017 0 0 0 3.586-.917c1.101-.4 2.05-.953 2.847-1.659.75-.682 1.5-1.747 2.25-3.194.75-1.447 1.512-3.44 2.285-5.981h5.907v9.422h12.023v6.317h-11.461v12.88c0 3.153.07 5.653.211 7.499.141 1.847.375 3.253.703 4.217.328.965.768 1.588 1.319 1.871.55.282 1.248.423 2.091.423.469 0 .996-.029 1.582-.088a20.235 20.235 0 0 0 1.723-.247 14.14 14.14 0 0 0 1.582-.388 6.223 6.223 0 0 0 1.231-.512l1.828 3.988c-.563.588-1.319 1.147-2.268 1.676-.949.529-2.051.994-3.305 1.394-1.254.4-2.613.718-4.078.953a28.703 28.703 0 0 1-4.552.353c-2.04 0-3.715-.259-5.028-.777-1.312-.517-2.349-1.305-3.111-2.364s-1.289-2.406-1.582-4.041c-.293-1.635-.44-3.582-.44-5.84V28.565zM314.877 28.565h-5.344v-3.988a20.017 20.017 0 0 0 3.586-.917c1.101-.4 2.051-.953 2.848-1.659.75-.682 1.5-1.747 2.25-3.194.75-1.447 1.511-3.44 2.285-5.981h5.906v9.422h12.023v6.317H326.97v12.88c0 3.153.071 5.653.211 7.499.141 1.847.375 3.253.704 4.217.328.965.767 1.588 1.318 1.871.551.282 1.248.423 2.092.423.468 0 .996-.029 1.582-.088.586-.059 1.16-.141 1.722-.247a14.14 14.14 0 0 0 1.582-.388 6.173 6.173 0 0 0 1.231-.512l1.828 3.988c-.562.588-1.318 1.147-2.268 1.676-.949.529-2.05.994-3.304 1.394-1.254.4-2.614.718-4.078.953a28.716 28.716 0 0 1-4.553.353c-2.039 0-3.715-.259-5.027-.777-1.313-.517-2.35-1.305-3.112-2.364-.761-1.059-1.289-2.406-1.582-4.041-.293-1.635-.439-3.582-.439-5.84V28.565zM353.619 14.978a8.128 8.128 0 0 1-2.69-.458 7.248 7.248 0 0 1-2.32-1.306 6.466 6.466 0 0 1-1.617-2.082c-.41-.823-.615-1.753-.615-2.788 0-1.129.258-2.176.773-3.141a8.682 8.682 0 0 1 2.004-2.505 9.53 9.53 0 0 1 2.76-1.659c1.019-.4 2.045-.6 3.076-.6 1.266 0 2.35.177 3.252.53.902.353 1.646.835 2.232 1.446a5.815 5.815 0 0 1 1.301 2.118c.281.8.422 1.658.422 2.576 0 1.2-.24 2.282-.721 3.247a7.867 7.867 0 0 1-1.933 2.487 8.593 8.593 0 0 1-2.76 1.588 9.416 9.416 0 0 1-3.164.547zm-9.844 41.959l4.746-.988v-21.95l-4.5-5.081v-3.282l13.922-4.517 2.988.882V56.02l5.063.917v4.8h-22.219v-4.8zM370.705 56.937l4.394-.882v-23.22l-4.781-3.388v-4.446l13.043-3.882 2.637.67v5.223a18.838 18.838 0 0 1 3.094-2.435 21.646 21.646 0 0 1 3.638-1.853 24.121 24.121 0 0 1 3.955-1.182 19.866 19.866 0 0 1 4.043-.423c2.25 0 4.114.359 5.59 1.076a8.587 8.587 0 0 1 3.533 3.123c.879 1.365 1.5 3.029 1.864 4.994.363 1.964.545 4.205.545 6.722V56.02l4.957.917v4.8h-22.43v-4.8l5.027-.988V38.622c0-1.882-.088-3.429-.263-4.64-.176-1.212-.51-2.165-1.002-2.859-.493-.694-1.19-1.176-2.092-1.447-.903-.27-2.092-.405-3.569-.405-.21 0-.556.041-1.037.123-.48.082-.99.194-1.529.335-.539.142-1.066.312-1.582.512s-.914.418-1.195.653v25.091l4.324.952v4.8h-21.164v-4.8zM427.201 60.502c-.914-.353-1.629-.765-2.145-1.236a4.963 4.963 0 0 1-1.177-1.57 5.75 5.75 0 0 1-.51-1.835 18.86 18.86 0 0 1-.106-2.029c0-.565.135-1.194.405-1.888.269-.694.627-1.4 1.072-2.117.445-.718.955-1.412 1.529-2.082a15.915 15.915 0 0 1 1.776-1.783c-2.157-1.035-3.832-2.446-5.028-4.234-1.195-1.788-1.793-3.976-1.793-6.564 0-2.47.551-4.588 1.653-6.352a13.631 13.631 0 0 1 4.324-4.341c1.781-1.129 3.797-1.958 6.047-2.488a32.768 32.768 0 0 1 6.855-.864c2.672-.047 5.098.194 7.278.723 2.179.53 4.043 1.394 5.589 2.594.235-.471.545-.906.932-1.306s.891-.747 1.512-1.041c.621-.294 1.377-.523 2.267-.688.891-.165 1.934-.247 3.129-.247h3.094v8.469h-7.277c.422 1.318.633 2.777.633 4.376 0 2.4-.452 4.482-1.354 6.247a12.228 12.228 0 0 1-3.762 4.393c-1.605 1.165-3.515 2.029-5.73 2.594-2.215.564-4.635.847-7.26.847-2.273 0-4.336-.177-6.187-.53-.375.894-.563 1.753-.563 2.577 0 1.435.434 2.458 1.301 3.07.867.611 2.109.917 3.726.917h8.227c3.117 0 5.754.212 7.91.635 2.156.424 3.908 1.1 5.256 2.03 1.348.929 2.32 2.123 2.918 3.581.598 1.459.896 3.224.896 5.294 0 2.023-.498 3.935-1.494 5.734-.996 1.8-2.472 3.37-4.429 4.711-1.957 1.341-4.395 2.406-7.313 3.194-2.918.788-6.287 1.182-10.107 1.182-2.742 0-5.221-.2-7.436-.6-2.215-.4-4.107-1.023-5.678-1.87-1.57-.847-2.783-1.929-3.638-3.247-.856-1.317-1.283-2.893-1.283-4.728 0-1.2.181-2.294.544-3.282.364-.988.833-1.876 1.407-2.665a12.048 12.048 0 0 1 1.916-2.082c.703-.6 1.394-1.099 2.074-1.499zm12.797-18.068c1.101 0 2.021-.236 2.76-.706a5.586 5.586 0 0 0 1.793-1.835 7.771 7.771 0 0 0 .966-2.559c.188-.953.282-1.923.282-2.911 0-2.682-.545-4.747-1.635-6.193-1.09-1.447-2.69-2.171-4.799-2.171-.703 0-1.412.112-2.127.336a5.291 5.291 0 0 0-1.934 1.093c-.574.506-1.037 1.165-1.388 1.977-.352.811-.528 1.805-.528 2.982 0 1.341.094 2.617.282 3.829.187 1.211.527 2.276 1.019 3.193a5.617 5.617 0 0 0 2.022 2.17c.855.53 1.951.795 3.287.795zm-8.227 24.173c0 1.388.246 2.593.739 3.617a7.227 7.227 0 0 0 2.056 2.576c.879.694 1.922 1.212 3.129 1.553 1.207.341 2.525.511 3.955.511 1.547 0 2.918-.088 4.113-.264 1.196-.177 2.198-.5 3.006-.971a4.637 4.637 0 0 0 1.846-1.958c.422-.836.633-1.912.633-3.229 0-.73-.035-1.494-.106-2.294a4.11 4.11 0 0 0-.843-2.17c-.493-.647-1.278-1.183-2.356-1.606-1.078-.424-2.613-.635-4.605-.635h-6.223c-.82 0-1.582-.012-2.285-.036a48.557 48.557 0 0 1-2.004-.105c-.305.564-.557 1.246-.756 2.046-.199.8-.299 1.788-.299 2.965zM467.209 50.127h5.801l2.214 3.846c.282.306.621.671 1.02 1.094a9.514 9.514 0 0 0 3.252 2.241c.691.294 1.471.465 2.338.512 2.109.117 3.709-.236 4.799-1.059 1.089-.823 1.623-1.941 1.599-3.353-.023-.635-.287-1.241-.791-1.817-.504-.576-1.178-1.141-2.021-1.694a26.085 26.085 0 0 0-2.901-1.623 141.668 141.668 0 0 0-3.427-1.606 60.735 60.735 0 0 1-4.782-2.488c-1.523-.882-2.859-1.888-4.007-3.017a13.475 13.475 0 0 1-2.743-3.829c-.679-1.423-1.007-3.052-.984-4.887.023-1.412.299-2.665.826-3.759a9.646 9.646 0 0 1 2.11-2.876 13.372 13.372 0 0 1 3.023-2.117 19.984 19.984 0 0 1 3.568-1.429 28.171 28.171 0 0 1 3.744-.83 27.985 27.985 0 0 1 3.569-.317 42.23 42.23 0 0 1 4.043.123 47.07 47.07 0 0 1 3.885.459c1.23.2 2.367.424 3.41.671 1.043.247 1.927.511 2.654.794V32.8h-6.188l-1.968-4.376c-.61-.73-1.365-1.377-2.268-1.941a5.427 5.427 0 0 0-2.935-.847c-.657 0-1.295.059-1.916.176a5.395 5.395 0 0 0-1.653.583c-.48.27-.867.611-1.16 1.023-.293.412-.439.9-.439 1.464 0 .777.158 1.494.474 2.153a6.997 6.997 0 0 0 1.319 1.853 10.966 10.966 0 0 0 2.021 1.605c.785.494 1.647.953 2.584 1.377a326.96 326.96 0 0 0 3.428 1.552 53.534 53.534 0 0 1 3.392 1.659 29.939 29.939 0 0 1 3.112 1.906 13.094 13.094 0 0 1 2.549 2.329c.726.87 1.3 1.841 1.722 2.911.422 1.071.633 2.288.633 3.653 0 2.329-.504 4.299-1.512 5.91-1.008 1.612-2.367 2.924-4.078 3.935-1.711 1.012-3.703 1.741-5.976 2.188-2.274.447-4.676.671-7.207.671-1.125 0-2.315-.059-3.569-.177a34.563 34.563 0 0 1-3.761-.564 30.11 30.11 0 0 1-3.639-.989 16.313 16.313 0 0 1-3.164-1.446v-9.281z"/></g></svg>